<svg width="915" height="226" viewBox="0 0 915 226" fill="none" xmlns="http://www.w3.org/2000/svg">
<g filter="url(#filter0_g_379_905)">
<g clip-path="url(#clip0_379_905)">
<rect x="1.26025" y="2.72363" width="209" height="220.553" rx="33.608" fill="#111827"/>
<line x1="1.78538" y1="65.2134" x2="209.735" y2="65.2134" stroke="#374151" stroke-width="1.05025" stroke-linecap="round" stroke-dasharray="3.15 3.15"/>
<line x1="1.78538" y1="68.3643" x2="209.735" y2="68.3643" stroke="#374151" stroke-width="1.05025" stroke-linecap="round" stroke-dasharray="3.15 3.15"/>
<line x1="1.78538" y1="119.827" x2="209.735" y2="119.827" stroke="#1F2937" stroke-width="1.05025" stroke-linecap="round"/>
<line x1="1.78538" y1="171.289" x2="209.735" y2="171.289" stroke="#1F2937" stroke-width="1.05025" stroke-linecap="round"/>
<g filter="url(#filter1_n_379_905)">
<rect width="209" height="58.8141" transform="translate(1.26025 2.72363)" fill="#FDD655"/>
</g>
<rect width="62.0575" height="75.9888" transform="translate(148.203 147.288)" fill="#030712"/>
<path d="M139.887 147.366C162.877 124.393 210.261 147.133 210.261 147.133L148.296 223.276C148.296 223.276 116.897 170.339 139.887 147.366Z" fill="#030712"/>
<g filter="url(#filter2_g_379_905)">
<path d="M148.289 147.366C171.279 124.393 210.261 147.366 210.261 147.366L148.289 223.276C148.289 223.276 125.299 170.339 148.289 147.366Z" fill="#374151"/>
</g>
</g>
</g>
<path d="M682.187 195.338C678.867 195.338 675.754 194.508 672.849 192.848C670.047 191.188 668.647 188.438 668.647 184.599C668.647 182.835 668.958 181.175 669.58 179.618C670.307 178.062 671.552 176.194 673.316 174.015C675.184 171.733 677.83 168.879 681.254 165.455C684.885 161.823 687.894 158.14 690.281 154.404C692.667 150.669 693.861 145.844 693.861 139.93C693.861 136.713 693.446 133.86 692.616 131.369C691.889 128.775 690.54 126.752 688.569 125.299C686.701 123.743 684.003 122.965 680.475 122.965C678.815 122.965 677.207 123.224 675.651 123.743C674.094 124.262 672.693 124.884 671.448 125.611C670.307 126.337 669.373 127.115 668.647 127.945C669.788 128.983 670.514 130.28 670.826 131.836C671.241 133.289 671.448 134.586 671.448 135.727C671.448 136.973 671.085 138.477 670.359 140.241C669.632 141.901 668.491 143.354 666.935 144.599C665.378 145.74 663.355 146.259 660.865 146.155C657.544 145.948 655.054 144.858 653.394 142.887C651.837 140.812 651.059 138.218 651.059 135.105C651.059 131.369 652.46 127.738 655.261 124.21C658.063 120.682 661.902 117.777 666.779 115.494C671.656 113.211 677.207 112.07 683.433 112.07C691.734 112.07 698.27 113.263 703.043 115.65C707.92 118.036 711.396 121.149 713.472 124.988C715.547 128.724 716.584 132.666 716.584 136.817C716.584 141.175 715.495 145.17 713.316 148.801C711.137 152.329 708.439 155.598 705.222 158.607C702.006 161.616 698.789 164.366 695.573 166.856C692.356 169.242 689.658 171.525 687.479 173.704C685.3 175.883 684.211 177.958 684.211 179.93C684.211 181.279 684.678 182.42 685.612 183.354C686.649 184.184 688.258 184.599 690.437 184.599C691.059 184.599 691.734 184.547 692.46 184.443C693.29 184.34 694.172 184.184 695.106 183.976L697.44 191.914C694.846 193.263 692.149 194.197 689.347 194.716C686.545 195.131 684.159 195.338 682.187 195.338ZM683.744 226C680.735 226 678.089 224.807 675.806 222.42C673.627 220.034 672.538 217.18 672.538 213.86C672.538 210.539 673.679 207.686 675.962 205.299C678.245 202.913 680.89 201.72 683.9 201.72C687.116 201.72 689.762 202.913 691.837 205.299C694.016 207.686 695.106 210.539 695.106 213.86C695.106 217.18 693.964 220.034 691.682 222.42C689.399 224.807 686.753 226 683.744 226Z" fill="#D1D5DB"/>
<path d="M589.004 226C582.778 226 577.279 224.392 572.506 221.175C567.837 217.959 564.153 213.393 561.456 207.479C558.861 201.564 557.564 194.612 557.564 186.623C557.564 178.218 559.173 170.747 562.389 164.21C565.606 157.673 570.12 152.537 575.93 148.802C581.741 145.066 588.485 143.198 596.164 143.198C598.965 143.198 601.455 143.51 603.634 144.132C605.917 144.651 608.044 145.274 610.016 146V135.728C610.016 134.275 610.068 132.2 610.171 129.502C610.275 126.804 610.431 124.314 610.638 122.031C608.978 122.135 607.007 122.239 604.724 122.342C602.441 122.446 600.729 122.498 599.588 122.498V110.669C604.465 110.669 608.511 110.41 611.728 109.891C615.048 109.372 617.642 108.75 619.51 108.023C621.481 107.297 622.83 106.623 623.557 106H631.961V198.451C631.961 199.904 631.909 201.979 631.806 204.677C631.702 207.271 631.546 209.761 631.339 212.148C633.103 211.94 634.97 211.837 636.942 211.837C638.913 211.733 640.418 211.681 641.456 211.681V223.51H611.884C611.78 222.368 611.624 221.175 611.417 219.93C611.313 218.685 611.157 217.492 610.95 216.35C607.526 219.878 603.998 222.368 600.366 223.821C596.734 225.274 592.947 226 589.004 226ZM597.098 211.837C599.795 211.837 602.286 211.162 604.568 209.813C606.851 208.361 608.667 206.545 610.016 204.366C610.016 202.809 610.016 201.253 610.016 199.696C610.016 198.14 610.016 196.584 610.016 195.027V157.673C608.978 156.843 607.422 156.169 605.347 155.65C603.271 155.027 601.144 154.716 598.965 154.716C594.192 154.82 590.457 156.324 587.759 159.23C585.061 162.135 583.142 165.818 582 170.28C580.963 174.742 580.444 179.411 580.444 184.288C580.444 188.646 580.963 192.952 582 197.206C583.142 201.46 584.906 204.988 587.292 207.79C589.782 210.488 593.051 211.837 597.098 211.837Z" fill="#D1D5DB"/>
<path d="M459.713 223.51V213.393C462.618 213.393 464.694 212.822 465.939 211.681C467.184 210.54 467.962 208.931 468.273 206.856C468.688 204.677 468.896 202.239 468.896 199.541V173.393C468.896 171.525 468.948 169.45 469.052 167.167C469.155 164.781 469.311 162.446 469.518 160.163C467.858 160.267 465.887 160.371 463.604 160.475C461.425 160.475 459.765 160.527 458.624 160.63V148.802C463.397 148.802 467.443 148.542 470.764 148.023C474.084 147.505 476.678 146.882 478.546 146.156C480.517 145.429 481.866 144.755 482.592 144.132H490.219C490.426 145.481 490.53 146.467 490.53 147.09C490.53 147.712 490.53 148.335 490.53 148.957C490.634 149.476 490.841 150.462 491.153 151.914C493.228 150.254 495.614 148.802 498.312 147.556C501.01 146.208 503.708 145.17 506.406 144.444C509.103 143.614 511.49 143.198 513.565 143.198C523.111 143.198 529.856 145.948 533.799 151.448C537.845 156.843 539.869 165.559 539.869 177.595V198.451C539.869 199.904 539.817 201.979 539.713 204.677C539.609 207.271 539.454 209.761 539.246 212.148C541.01 211.94 542.878 211.837 544.849 211.837C546.821 211.733 548.325 211.681 549.363 211.681V223.51H508.585V213.393C511.49 213.393 513.565 212.822 514.81 211.681C516.159 210.54 516.989 208.931 517.301 206.856C517.716 204.677 517.923 202.239 517.923 199.541L517.768 177.44C517.768 170.695 516.782 165.715 514.81 162.498C512.943 159.178 509.726 157.518 505.161 157.518C502.566 157.518 499.972 158.088 497.378 159.23C494.888 160.371 492.761 161.72 490.997 163.276C490.997 164.729 490.997 166.234 490.997 167.79C490.997 169.243 490.997 170.695 490.997 172.148V198.451C490.997 199.904 490.945 201.979 490.841 204.677C490.738 207.271 490.582 209.761 490.375 212.148C492.035 211.94 493.851 211.837 495.822 211.837C497.897 211.733 499.454 211.681 500.491 211.681V223.51H459.713Z" fill="#D1D5DB"/>
<path d="M408.795 213.393C411.7 213.393 413.776 212.822 415.021 211.681C416.266 210.54 417.044 208.931 417.355 206.856C417.77 204.677 417.978 202.239 417.978 199.541V173.704C417.978 171.837 418.03 169.709 418.134 167.323C418.237 164.833 418.393 162.446 418.601 160.163C416.94 160.267 414.969 160.371 412.686 160.475C410.507 160.475 408.847 160.527 407.706 160.63V148.802C412.479 148.802 416.525 148.542 419.846 148.023C423.166 147.505 425.76 146.882 427.628 146.156C429.599 145.429 430.948 144.755 431.674 144.132H440.079V198.451C440.079 199.904 440.027 201.979 439.923 204.677C439.82 207.271 439.664 209.761 439.457 212.148C441.117 211.94 442.933 211.837 444.904 211.837C446.979 211.733 448.536 211.681 449.573 211.681V223.51H408.795V213.393ZM428.25 131.837C424.722 131.837 421.817 130.591 419.534 128.101C417.252 125.611 416.11 122.602 416.11 119.074C416.11 115.546 417.303 112.537 419.69 110.047C422.077 107.556 424.878 106.311 428.095 106.311C431.415 106.311 434.165 107.556 436.344 110.047C438.626 112.537 439.768 115.546 439.768 119.074C439.768 122.602 438.73 125.611 436.655 128.101C434.58 130.591 431.778 131.837 428.25 131.837Z" fill="#D1D5DB"/>
<path d="M316.05 225.066C312.522 216.454 308.994 207.893 305.466 199.385C302.042 190.877 298.566 182.368 295.038 173.86C294.208 171.888 293.118 169.139 291.769 165.611C290.524 161.979 289.175 157.829 287.723 153.159C286.374 148.49 285.129 143.665 283.987 138.685C284.195 144.495 284.35 149.995 284.454 155.183C284.558 160.267 284.558 165.144 284.454 169.813C284.454 172.096 284.454 174.43 284.454 176.817C284.454 179.203 284.402 181.59 284.299 183.976C284.299 186.259 284.299 188.594 284.299 190.98C284.299 193.263 284.299 195.598 284.299 197.984C284.299 200.786 284.195 203.484 283.987 206.078C283.884 208.672 283.728 210.643 283.52 211.992C285.284 211.784 287.411 211.681 289.902 211.681C292.496 211.577 294.312 211.525 295.349 211.525V223.509H259.863V213.237C262.249 213.133 264.221 212.822 265.777 212.303C267.437 211.784 268.683 210.591 269.513 208.723C270.446 206.856 270.913 203.847 270.913 199.696L271.847 140.085C271.951 137.284 272.055 134.586 272.159 131.992C272.262 129.398 272.366 127.426 272.47 126.078C270.81 126.181 268.734 126.285 266.244 126.389C263.754 126.389 261.938 126.441 260.797 126.545V114.56H295.194L318.695 174.794C319.629 177.18 320.667 179.982 321.808 183.198C322.95 186.311 324.039 189.372 325.077 192.381C326.114 195.286 326.893 197.621 327.411 199.385H327.567C328.916 195.753 330.161 192.225 331.302 188.801C332.444 185.377 333.637 182.057 334.882 178.84C338.929 168.049 342.924 157.31 346.867 146.622C350.913 135.935 354.96 125.247 359.007 114.56H394.96V124.832C392.677 124.936 390.654 125.247 388.89 125.766C387.126 126.285 385.777 127.478 384.843 129.346C384.013 131.11 383.65 134.119 383.754 138.373L386.088 197.984C386.296 200.786 386.296 203.484 386.088 206.078C385.881 208.672 385.673 210.643 385.466 211.992C387.23 211.784 389.357 211.681 391.847 211.681C394.441 211.577 396.257 211.525 397.295 211.525V223.509H354.026V213.237C356.413 213.133 358.436 212.822 360.096 212.303C361.86 211.784 363.157 210.591 363.987 208.723C364.921 206.856 365.284 203.847 365.077 199.696L363.832 166.7C363.832 165.455 363.728 163.328 363.52 160.319C363.313 157.206 363.105 153.834 362.898 150.202C362.794 146.467 362.69 142.991 362.587 139.774C362.275 140.5 361.964 141.227 361.653 141.953C361.341 142.576 361.082 143.25 360.874 143.976L330.524 225.066H316.05Z" fill="#D1D5DB"/>
<path d="M880.779 61.6906V17.9666H887.775V26.3139H889.444L887.139 31.4813C887.139 26.7644 888.146 23.2135 890.16 20.8285C892.227 18.3906 895.274 17.1716 899.302 17.1716C903.913 17.1716 907.57 18.6291 910.273 21.544C913.029 24.406 914.406 28.3014 914.406 33.2302V35.8537H907.252V33.8662C907.252 30.4213 906.404 27.7979 904.708 25.9959C903.065 24.141 900.706 23.2135 897.632 23.2135C894.611 23.2135 892.227 24.141 890.478 25.9959C888.782 27.8509 887.934 30.4743 887.934 33.8662V61.6906H880.779Z" fill="#9CA3AF"/>
<path d="M848.056 62.4852C843.021 62.4852 838.993 61.0013 835.972 58.0333C832.951 55.0124 831.441 50.9315 831.441 45.7906V17.9663H838.596V45.7906C838.596 49.0766 839.444 51.647 841.14 53.5019C842.836 55.3039 845.141 56.2049 848.056 56.2049C851.024 56.2049 853.356 55.3039 855.052 53.5019C856.801 51.647 857.675 49.0766 857.675 45.7906V17.9663H864.83V45.7906C864.83 50.9315 863.293 55.0124 860.219 58.0333C857.145 61.0013 853.091 62.4852 848.056 62.4852Z" fill="#9CA3AF"/>
<path d="M800.468 62.3265C796.97 62.3265 793.949 61.664 791.405 60.339C788.861 59.0141 786.874 57.1061 785.443 54.6152C784.065 52.0712 783.376 49.0768 783.376 45.6319V34.0252C783.376 30.5272 784.065 27.5328 785.443 25.0419C786.874 22.5509 788.861 20.643 791.405 19.318C793.949 17.993 796.97 17.3306 800.468 17.3306C803.966 17.3306 806.987 17.993 809.531 19.318C812.075 20.643 814.036 22.5509 815.414 25.0419C816.845 27.5328 817.56 30.5007 817.56 33.9457V45.6319C817.56 49.0768 816.845 52.0712 815.414 54.6152C814.036 57.1061 812.075 59.0141 809.531 60.339C806.987 61.664 803.966 62.3265 800.468 62.3265ZM800.468 55.9666C803.595 55.9666 806.033 55.0922 807.782 53.3432C809.531 51.5942 810.405 49.0238 810.405 45.6319V34.0252C810.405 30.6332 809.531 28.0628 807.782 26.3139C806.033 24.5649 803.595 23.6904 800.468 23.6904C797.394 23.6904 794.956 24.5649 793.154 26.3139C791.405 28.0628 790.531 30.6332 790.531 34.0252V45.6319C790.531 49.0238 791.405 51.5942 793.154 53.3432C794.956 55.0922 797.394 55.9666 800.468 55.9666Z" fill="#9CA3AF"/>
<path d="M743.102 75.9999L749.541 58.9873L733.323 17.9663H741.273L751.449 44.9957C751.82 45.8966 752.164 46.9831 752.482 48.2551C752.8 49.474 753.065 50.5075 753.277 51.3555C753.489 50.5075 753.754 49.474 754.072 48.2551C754.39 46.9831 754.708 45.8966 755.026 44.9957L764.566 17.9663H772.277L750.733 75.9999H743.102Z" fill="#9CA3AF"/>
<path d="M640.929 61.6906V17.9666H648.084V26.3139H649.594L648.084 27.9834C648.084 24.5385 649.117 21.8885 651.184 20.0336C653.251 18.1256 656.113 17.1716 659.77 17.1716C664.169 17.1716 667.667 18.5231 670.264 21.226C672.86 23.929 674.159 27.6124 674.159 32.2763V61.6906H667.004V33.0712C667.004 29.9443 666.156 27.5594 664.46 25.9164C662.817 24.2205 660.565 23.3725 657.703 23.3725C654.735 23.3725 652.376 24.2735 650.627 26.0754C648.932 27.8774 648.084 30.4743 648.084 33.8662V61.6906H640.929Z" fill="#9CA3AF"/>
<path d="M609.797 62.3265C606.299 62.3265 603.278 61.664 600.734 60.339C598.19 59.0141 596.203 57.1061 594.772 54.6152C593.394 52.0712 592.705 49.0768 592.705 45.6319V34.0252C592.705 30.5272 593.394 27.5328 594.772 25.0419C596.203 22.5509 598.19 20.643 600.734 19.318C603.278 17.993 606.299 17.3306 609.797 17.3306C613.295 17.3306 616.316 17.993 618.859 19.318C621.403 20.643 623.364 22.5509 624.742 25.0419C626.173 27.5328 626.889 30.5007 626.889 33.9457V45.6319C626.889 49.0768 626.173 52.0712 624.742 54.6152C623.364 57.1061 621.403 59.0141 618.859 60.339C616.316 61.664 613.295 62.3265 609.797 62.3265ZM609.797 55.9666C612.924 55.9666 615.362 55.0922 617.111 53.3432C618.859 51.5942 619.734 49.0238 619.734 45.6319V34.0252C619.734 30.6332 618.859 28.0628 617.111 26.3139C615.362 24.5649 612.924 23.6904 609.797 23.6904C606.723 23.6904 604.285 24.5649 602.483 26.3139C600.734 28.0628 599.859 30.6332 599.859 34.0252V45.6319C599.859 49.0238 600.734 51.5942 602.483 53.3432C604.285 55.0922 606.723 55.9666 609.797 55.9666Z" fill="#9CA3AF"/>
<path d="M513.11 62.3265C510.142 62.3265 507.545 61.876 505.319 60.975C503.146 60.021 501.397 58.6961 500.072 57.0001C498.8 55.3042 498.032 53.2902 497.767 50.9583H504.921C505.239 52.4952 506.087 53.7142 507.465 54.6152C508.896 55.5161 510.778 55.9666 513.11 55.9666H516.449C519.258 55.9666 521.351 55.4101 522.729 54.2972C524.107 53.1312 524.796 51.5942 524.796 49.6863C524.796 47.8313 524.16 46.3739 522.888 45.3139C521.669 44.2009 519.841 43.4589 517.403 43.0879L511.52 42.134C507.227 41.392 504.02 40.067 501.9 38.1591C499.834 36.1981 498.8 33.3627 498.8 29.6528C498.8 25.7309 500.046 22.7099 502.536 20.59C505.027 18.417 508.764 17.3306 513.746 17.3306H516.767C520.954 17.3306 524.319 18.311 526.863 20.272C529.407 22.2329 530.944 24.8829 531.474 28.2218H524.319C524.001 26.8438 523.206 25.7574 521.934 24.9624C520.662 24.1144 518.94 23.6904 516.767 23.6904H513.746C511.043 23.6904 509.055 24.1939 507.783 25.2009C506.564 26.2079 505.955 27.7183 505.955 29.7323C505.955 31.5342 506.485 32.8592 507.545 33.7072C508.605 34.5552 510.274 35.1646 512.553 35.5356L518.436 36.4896C523.153 37.2316 526.571 38.6096 528.691 40.6235C530.864 42.6375 531.951 45.5524 531.951 49.3683C531.951 53.3962 530.652 56.5761 528.055 58.9081C525.511 61.187 521.643 62.3265 516.449 62.3265H513.11Z" fill="#9CA3AF"/>
<path d="M455.664 24.7239L462.023 0H472.358L462.023 24.7239H455.664Z" fill="#9CA3AF"/>
<path d="M423.895 61.6904C420.132 61.6904 417.191 60.6835 415.071 58.6695C413.004 56.6556 411.971 53.8201 411.971 50.1632V24.4853H399.648V17.9665H411.971V5.64429H419.125V17.9665H436.615V24.4853H419.125V50.1632C419.125 53.5021 420.715 55.1716 423.895 55.1716H435.82V61.6904H423.895Z" fill="#9CA3AF"/>
<path d="M367.642 62.4855C363.031 62.4855 359.4 61.3196 356.75 58.9876C354.1 56.6027 352.775 53.3963 352.775 49.3684C352.775 45.2875 354.1 42.081 356.75 39.7491C359.4 37.4171 362.978 36.2512 367.483 36.2512H380.997V31.8788C380.997 29.1758 380.176 27.1089 378.533 25.6779C376.943 24.194 374.664 23.452 371.696 23.452C369.099 23.452 366.926 24.0085 365.177 25.1214C363.428 26.1814 362.421 27.6389 362.156 29.4938H355.001C355.478 25.7309 357.254 22.7365 360.328 20.5106C363.402 18.2846 367.244 17.1716 371.855 17.1716C376.89 17.1716 380.865 18.4701 383.78 21.067C386.695 23.664 388.152 27.1884 388.152 31.6403V61.6906H381.156V53.3433H379.964L381.156 52.1508C381.156 55.3307 379.911 57.8482 377.42 59.7031C374.982 61.5581 371.722 62.4855 367.642 62.4855ZM369.39 56.8412C372.782 56.8412 375.565 55.9932 377.738 54.2972C379.911 52.6013 380.997 50.4283 380.997 47.7784V41.5775H367.642C365.257 41.5775 363.375 42.24 361.997 43.565C360.619 44.89 359.93 46.6919 359.93 48.9709C359.93 51.4088 360.752 53.3433 362.395 54.7742C364.091 56.1522 366.423 56.8412 369.39 56.8412Z" fill="#9CA3AF"/>
<path d="M307.255 61.6903V3.65674H314.41V17.9664V26.3137H315.92L314.41 27.9832C314.41 24.5382 315.443 21.8883 317.51 20.0333C319.577 18.1254 322.439 17.1714 326.096 17.1714C330.495 17.1714 333.993 18.5229 336.59 21.2258C339.187 23.9287 340.485 27.6122 340.485 32.276V61.6903H333.33V33.071C333.33 29.9441 332.482 27.5327 330.786 25.8367C329.143 24.0877 326.891 23.2133 324.029 23.2133C321.061 23.2133 318.703 24.1407 316.954 25.9957C315.258 27.8507 314.41 30.4741 314.41 33.866V61.6903H307.255Z" fill="#9CA3AF"/>
<path d="M260.938 61.6903L254.26 3.65674H261.097L265.469 46.5857C265.575 47.7517 265.681 48.9706 265.787 50.2426C265.893 51.4616 265.973 52.6276 266.026 53.7405C266.132 54.8535 266.185 55.781 266.185 56.523C266.291 55.781 266.37 54.8535 266.423 53.7405C266.529 52.6276 266.635 51.4616 266.741 50.2426C266.9 48.9706 267.059 47.7517 267.218 46.5857L272.624 3.65674H280.018L284.947 46.5857C285.106 47.7517 285.238 48.9706 285.344 50.2426C285.503 51.4616 285.636 52.6276 285.742 53.7405C285.9 54.8535 286.006 55.781 286.059 56.523C286.112 55.781 286.165 54.8535 286.218 53.7405C286.324 52.6276 286.43 51.4616 286.536 50.2426C286.695 48.9706 286.828 47.7517 286.934 46.5857L291.465 3.65674H297.984L291.147 61.6903H282.164L277.235 17.9664C277.129 16.7474 276.997 15.555 276.838 14.389C276.732 13.223 276.626 12.1365 276.52 11.1296C276.414 10.1226 276.334 9.3011 276.281 8.66512C276.228 9.3011 276.122 10.1226 275.963 11.1296C275.857 12.1365 275.751 13.223 275.645 14.389C275.539 15.555 275.407 16.7474 275.248 17.9664L269.921 61.6903H260.938Z" fill="#9CA3AF"/>
<defs>
<filter id="filter0_g_379_905" x="-4.76837e-05" y="1.46333" width="211.521" height="223.073" filterUnits="userSpaceOnUse" color-interpolation-filters="sRGB">
<feFlood flood-opacity="0" result="BackgroundImageFix"/>
<feBlend mode="normal" in="SourceGraphic" in2="BackgroundImageFix" result="shape"/>
<feTurbulence type="fractalNoise" baseFrequency="0.59509563446044922 0.59509563446044922" numOctaves="3" seed="9624" />
<feDisplacementMap in="shape" scale="2.5206031799316406" xChannelSelector="R" yChannelSelector="G" result="displacedImage" width="100%" height="100%" />
<feMerge result="effect1_texture_379_905">
<feMergeNode in="displacedImage"/>
</feMerge>
</filter>
<filter id="filter1_n_379_905" x="1.26025" y="2.72363" width="209" height="58.814" filterUnits="userSpaceOnUse" color-interpolation-filters="sRGB">
<feFlood flood-opacity="0" result="BackgroundImageFix"/>
<feBlend mode="normal" in="SourceGraphic" in2="BackgroundImageFix" result="shape"/>
<feTurbulence type="fractalNoise" baseFrequency="3.1738433837890625 3.1738433837890625" stitchTiles="stitch" numOctaves="3" result="noise" seed="8372" />
<feComponentTransfer in="noise" result="coloredNoise1">
<feFuncR type="linear" slope="2" intercept="-0.5" />
<feFuncG type="linear" slope="2" intercept="-0.5" />
<feFuncB type="linear" slope="2" intercept="-0.5" />
<feFuncA type="discrete" tableValues="1 1 1 1 1 1 1 1 1 1 1 1 1 1 1 1 1 1 1 1 1 1 1 1 1 1 1 1 1 1 1 1 1 1 1 1 1 1 1 1 1 1 1 1 1 1 1 1 1 1 1 0 0 0 0 0 0 0 0 0 0 0 0 0 0 0 0 0 0 0 0 0 0 0 0 0 0 0 0 0 0 0 0 0 0 0 0 0 0 0 0 0 0 0 0 0 0 0 0 0 "/>
</feComponentTransfer>
<feComposite operator="in" in2="shape" in="coloredNoise1" result="noise1Clipped" />
<feComponentTransfer in="noise1Clipped" result="color1">
<feFuncA type="table" tableValues="0 0.16" />
</feComponentTransfer>
<feMerge result="effect1_noise_379_905">
<feMergeNode in="shape" />
<feMergeNode in="color1" />
</feMerge>
</filter>
<filter id="filter2_g_379_905" x="133.87" y="132.955" width="80.5915" height="94.5226" filterUnits="userSpaceOnUse" color-interpolation-filters="sRGB">
<feFlood flood-opacity="0" result="BackgroundImageFix"/>
<feBlend mode="normal" in="SourceGraphic" in2="BackgroundImageFix" result="shape"/>
<feTurbulence type="fractalNoise" baseFrequency="1.9043060541152954 1.9043060541152954" numOctaves="3" seed="5469" />
<feDisplacementMap in="shape" scale="8.4020109176635742" xChannelSelector="R" yChannelSelector="G" result="displacedImage" width="100%" height="100%" />
<feMerge result="effect1_texture_379_905">
<feMergeNode in="displacedImage"/>
</feMerge>
</filter>
<clipPath id="clip0_379_905">
<rect x="1.26025" y="2.72363" width="209" height="220.553" rx="33.608" fill="white"/>
</clipPath>
</defs>
</svg>
